<?xml version="1.0" standalone="no"?>
<!DOCTYPE svg PUBLIC "-//W3C//DTD SVG 20010904//EN"
 "http://www.w3.org/TR/2001/REC-SVG-20010904/DTD/svg10.dtd">
<svg version="1.0" xmlns="http://www.w3.org/2000/svg"
 width="506.000000pt" height="506.000000pt" viewBox="0 0 506.000000 506.000000"
 preserveAspectRatio="xMidYMid meet">
<metadata>
Created by potrace 1.11, written by Peter Selinger 2001-2013
</metadata>
<g transform="translate(0.000000,506.000000) scale(0.100000,-0.100000)"
fill="#000000" stroke="none">
<path d="M2358 4638 c-27 -3 -69 -9 -95 -12 -27 -3 -59 -7 -73 -10 -14 -2 -43
-7 -65 -11 -22 -3 -48 -8 -57 -11 -9 -3 -27 -7 -40 -9 -29 -6 -184 -54 -218
-68 -14 -5 -32 -11 -40 -13 -8 -2 -23 -7 -35 -13 -203 -96 -274 -135 -382
-207 -70 -47 -130 -88 -133 -92 -3 -4 -26 -24 -51 -44 -49 -39 -170 -157 -229
-223 -107 -119 -221 -290 -310 -465 -29 -58 -62 -117 -72 -133 -37 -52 -114
-79 -268 -93 -40 -3 -80 -8 -89 -9 -9 -2 -23 -4 -32 -4 -19 -1 -29 -28 -20
-52 5 -14 41 -16 283 -16 193 0 280 3 286 11 5 6 15 27 22 46 31 83 102 234
134 285 43 69 107 166 120 182 119 148 181 214 277 298 194 169 427 300 679
381 30 10 60 19 65 20 6 1 48 12 94 23 46 11 88 18 93 15 4 -3 8 -2 8 3 0 4
10 8 23 9 12 1 60 5 107 9 136 14 390 8 484 -11 11 -2 35 -7 51 -9 261 -46
594 -189 787 -339 83 -65 108 -85 152 -126 129 -118 255 -266 331 -391 68
-112 112 -201 180 -365 l17 -41 281 1 282 1 3 33 c3 25 -1 32 -15 33 -10 0
-25 2 -33 3 -8 2 -46 6 -85 10 -159 14 -220 33 -264 80 -12 12 -47 74 -79 137
-61 119 -67 130 -140 244 -296 460 -801 798 -1357 909 -16 4 -41 9 -55 11
-114 24 -424 38 -522 23z"/>
<path d="M138 2824 c-3 -3 -34 -6 -69 -7 l-64 -2 0 -290 0 -290 60 0 60 0 0
218 c0 119 2 217 5 217 4 0 103 -98 222 -218 l216 -219 78 1 79 1 0 290 0 290
-62 2 -61 1 0 -209 c0 -115 -2 -212 -5 -215 -3 -4 -104 93 -224 215 -121 122
-221 221 -224 221 -3 0 -8 -3 -11 -6z"/>
<path d="M1583 2818 c-34 -3 -75 -14 -91 -22 -86 -44 -112 -185 -48 -259 50
-58 79 -64 305 -65 113 -1 214 -2 223 -2 47 -1 66 -76 26 -104 -19 -14 -65
-16 -299 -16 l-276 0 -1 -58 0 -58 301 1 c258 1 306 3 332 17 131 71 124 268
-11 324 -25 11 -89 14 -252 14 -159 0 -223 3 -235 13 -25 18 -28 53 -8 78 17
21 23 22 287 23 l269 1 3 58 3 57 -33 1 c-18 1 -37 0 -43 -1 -9 -2 -63 -2
-255 0 -25 0 -64 -1 -88 -3 -23 -1 -43 0 -45 3 -1 3 -30 2 -64 -2z"/>
<path d="M2680 2823 c0 -4 -33 -7 -72 -5 -49 2 -86 -2 -115 -13 -132 -51 -147
-232 -25 -307 38 -23 93 -27 432 -28 76 0 88 -6 96 -47 5 -24 1 -35 -17 -52
-22 -20 -31 -21 -301 -21 l-279 0 3 -57 3 -58 300 0 c338 1 343 2 391 75 34
51 39 122 13 180 -42 93 -65 100 -339 100 -207 0 -221 1 -240 20 -25 25 -25
52 0 75 18 16 44 18 287 19 l268 1 1 58 2 57 -42 1 c-22 1 -45 0 -51 -1 -25
-5 -294 -2 -304 4 -6 4 -11 4 -11 -1z"/>
<path d="M4348 2823 c-17 -4 -18 -27 -18 -297 l0 -292 59 0 c45 0 61 4 63 16
2 8 3 106 3 218 0 111 2 202 5 202 3 0 102 -98 220 -219 l215 -219 80 2 80 1
0 293 0 292 -62 -1 -63 -2 0 -213 c0 -118 -3 -214 -7 -214 -5 0 -103 97 -219
215 l-211 215 -56 -1 c-30 -1 -59 0 -63 3 -5 2 -17 3 -26 1z"/>
<path d="M1024 2526 l1 -291 60 0 60 0 1 293 1 293 -62 -2 -63 -2 2 -291z"/>
<path d="M3643 2808 c-15 -19 -344 -549 -349 -563 -3 -7 19 -11 70 -11 l74 0
31 53 32 52 217 0 217 -1 30 -51 31 -52 69 0 c39 -1 73 0 77 2 4 2 -10 29 -31
61 -35 54 -134 212 -156 250 -39 67 -161 258 -168 263 -18 12 -134 10 -144 -3z
m151 -239 c37 -61 65 -113 61 -117 -6 -7 -285 -10 -285 -3 0 12 141 231 149
231 3 0 37 -50 75 -111z"/>
<path d="M150 1865 c0 -34 1 -35 38 -36 20 0 46 -2 57 -4 11 -2 43 -7 70 -10
108 -12 129 -16 169 -34 58 -26 76 -49 151 -196 163 -316 370 -565 630 -756
33 -24 61 -47 63 -51 2 -5 8 -8 13 -8 4 0 39 -20 76 -44 209 -135 528 -255
773 -291 25 -3 59 -9 75 -12 47 -8 495 -12 495 -4 0 4 10 7 22 6 26 -2 148 19
209 35 24 7 58 15 74 17 17 3 37 9 46 14 9 4 27 10 40 13 107 21 383 151 546
258 178 117 352 277 487 448 37 47 74 93 82 103 9 10 20 29 26 43 6 13 15 24
20 24 4 0 8 5 8 10 0 6 11 27 24 48 13 20 49 88 81 151 102 201 116 209 415
237 64 6 70 10 70 44 l0 30 -286 -3 -286 -2 -19 -50 c-101 -264 -235 -472
-428 -666 -163 -163 -293 -260 -474 -353 -95 -49 -198 -95 -222 -101 -5 -1
-19 -5 -30 -9 -58 -22 -72 -27 -90 -31 -11 -3 -56 -14 -100 -25 -44 -11 -96
-22 -115 -25 -19 -3 -57 -8 -85 -13 -67 -9 -414 -9 -490 1 -33 4 -73 10 -90
12 -64 9 -268 66 -352 99 -203 80 -424 210 -559 331 -139 124 -344 358 -344
394 0 5 -4 11 -8 13 -24 10 -171 295 -195 380 l-13 43 -287 3 -287 2 0 -35z"/>
</g>
</svg>
